<!DOCTYPE svg PUBLIC "-//W3C//DTD SVG 1.1//EN" "http://www.w3.org/Graphics/SVG/1.1/DTD/svg11.dtd">
<!-- Uploaded to: SVG Repo, www.svgrepo.com, Transformed by: SVG Repo Mixer Tools -->
<svg width="108px" height="108px" viewBox="0 0 24.00 24.00" fill="none" xmlns="http://www.w3.org/2000/svg" stroke="#000000" stroke-width="0.00024000000000000003">
<g id="SVGRepo_bgCarrier" stroke-width="0"/>
<g id="SVGRepo_tracerCarrier" stroke-linecap="round" stroke-linejoin="round"/>
<g id="SVGRepo_iconCarrier">
<path fill-rule="evenodd" clip-rule="evenodd" d="M3.276 5.183A1.5 1.5 0 0 0 3 6.05v11.9a1.5 1.5 0 0 0 2.367 1.224L12 14.478v3.402a1.5 1.5 0 0 0 2.39 1.207l7.973-5.88a1.5 1.5 0 0 0 0-2.415l-7.973-5.88A1.5 1.5 0 0 0 12 6.12v3.402L5.367 4.826a1.5 1.5 0 0 0-2.091.357zM5 7.016v9.967L12.039 12 5 7.016zM20.63 12 14 16.89V7.11L20.63 12z" fill="#494141"/>
</g>
</svg>